<svg width="568" height="684" viewBox="0 0 568 684" fill="none" xmlns="http://www.w3.org/2000/svg">
<path fill-rule="evenodd" clip-rule="evenodd" d="M598.761 483.819C598.761 483.819 529.967 522.165 456.077 522.165C328.681 522.165 221.669 427.578 221.669 220.51C221.669 123.367 259.888 51.7881 318.49 51.7881C338.873 51.7881 359.256 59.4573 371.996 74.7956C336.325 97.8032 315.942 133.593 315.942 171.939C315.942 238.405 379.64 292.089 456.077 292.089C524.871 292.089 580.925 251.187 593.665 194.946C594.514 187.698 596.213 172.437 596.213 169.382V156.6C586.021 72.2393 491.748 0.660156 356.709 0.660156C170.711 0.660156 0 133.593 0 348.33C0 534.947 119.752 683.218 323.586 683.218C422.954 683.218 535.063 637.203 616.596 509.383L598.761 483.819ZM455.994 244.434C500.343 244.434 536.295 212.334 536.295 172.737C536.295 133.14 500.343 101.04 455.994 101.04C411.645 101.04 375.693 133.14 375.693 172.737C375.693 212.334 411.645 244.434 455.994 244.434Z" fill="#FEF2D0"/>
<circle cx="455.993" cy="172.732" r="34.4147" fill="#FEF2D0"/>
</svg>
